<svg class="social-icon-fill" width="30" height="30" viewBox="0 0 30 30" fill="none" xmlns="http://www.w3.org/2000/svg"><path fill-rule="evenodd" clip-rule="evenodd" d="M3 3.25C1.48122 3.25 0.25 4.48121 0.25 6V24.4C0.25 25.9188 1.48122 27.15 3 27.15H27C28.5188 27.15 29.75 25.9188 29.75 24.4V6C29.75 4.48122 28.5188 3.25 27 3.25H3ZM1.75 6C1.75 5.30964 2.30964 4.75 3 4.75H27C27.6904 4.75 28.25 5.30964 28.25 6V24.4C28.25 25.0904 27.6904 25.65 27 25.65H3C2.30964 25.65 1.75 25.0904 1.75 24.4V6ZM24.4101 10.2003L15.4501 16.9203C15.1834 17.1203 14.8167 17.1203 14.5501 16.9203L5.59008 10.2003C5.25871 9.95178 5.19156 9.48168 5.44008 9.15031C5.68861 8.81894 6.15871 8.75178 6.49008 9.00031L15.0001 15.3828L23.5101 9.00031C23.8415 8.75178 24.3116 8.81894 24.5601 9.15031C24.8086 9.48168 24.7415 9.95178 24.4101 10.2003Z" fill="white"></path></svg>