<svg class="social-icon-fill" width="30" height="30" viewBox="0 0 30 30" fill="none" xmlns="http://www.w3.org/2000/svg"><path fill-rule="evenodd" clip-rule="evenodd" d="M29.2021 2.29128C29.4871 2.3899 29.6853 2.64956 29.7052 2.95041C29.8142 4.59396 29.734 5.81882 29.3639 6.86221C29.0225 7.8245 28.4577 8.56742 27.7099 9.31547V10.375C27.7099 19.9699 19.9435 27.75 10.3606 27.75L10.2857 27.75C7.10613 27.7502 3.76846 27.7503 0.583588 25.6238C0.308808 25.4403 0.186459 25.0986 0.282317 24.7824C0.378175 24.4662 0.669657 24.25 1.00006 24.25C4.6982 24.25 7.82719 22.5613 9.52731 21.2664C5.55292 19.6867 2.78453 17.2448 1.43666 14.1767C-0.0476899 10.7979 0.256627 6.81007 2.32594 2.66503C2.45925 2.39801 2.7382 2.23543 3.03624 2.25106C3.33429 2.26669 3.5947 2.45754 3.69935 2.73704C4.59654 5.13323 7.9449 9.87584 14.2285 10.2291L14.2285 9.08222C14.2285 5.31 17.282 2.25003 21.0513 2.25003C22.8547 2.25003 24.4912 2.96875 25.6893 4.13362C26.6713 3.90172 27.6414 3.3409 28.3993 2.49842C28.6009 2.27427 28.9172 2.19266 29.2021 2.29128ZM26.6834 8.22046C27.3244 7.57355 27.715 7.02367 27.9502 6.36072C28.1163 5.89237 28.2154 5.33778 28.2424 4.61274C27.4133 5.17664 26.485 5.5459 25.5445 5.68833L25.1461 5.74867L24.8759 5.4498C23.9308 4.4046 22.5677 3.75003 21.0513 3.75003C18.1126 3.75003 15.7285 6.13624 15.7285 9.08222L15.7285 11.75H14.9785C8.56761 11.75 4.7119 7.74457 3.01957 4.78232C1.71748 8.06916 1.7083 11.0657 2.80998 13.5734C4.07399 16.4506 6.86624 18.8344 11.2221 20.2886C11.4685 20.3709 11.6548 20.5748 11.7145 20.8276C11.7743 21.0804 11.6989 21.3461 11.5154 21.5299C10.3491 22.698 7.43534 24.7769 3.65251 25.4965C5.76005 26.2408 7.96828 26.25 10.3606 26.25C19.1128 26.25 26.2099 19.1436 26.2099 10.375V8.91784C26.2099 8.60128 26.406 8.33053 26.6834 8.22046Z" fill="white"></path></svg>