<svg width="100" height="100" viewBox="0 0 100 100" fill="none" xmlns="http://www.w3.org/2000/svg">
<rect width="100" height="100" fill="#222222"/>
<path d="M37.7185 41.1028C39.3379 41.0962 40.6231 36.0001 40.589 29.7203C40.5549 23.4405 39.2145 18.3551 37.595 18.3617C35.9756 18.3683 34.6904 23.4644 34.7245 29.7441C34.7586 36.0239 36.099 41.1093 37.7185 41.1028Z" fill="url(#paint0_linear_6_22)"/>
<path d="M64.6042 44.1228C66.2236 44.1162 67.5088 39.0201 67.4747 32.7403C67.4407 26.4605 66.1002 21.3751 64.4808 21.3817C62.8613 21.3883 61.5762 26.4844 61.6102 32.7642C61.6443 39.044 62.9848 44.1294 64.6042 44.1228Z" fill="url(#paint1_linear_6_22)"/>
<path d="M37.7811 37.6945C38.7842 37.6904 39.5803 34.5341 39.5592 30.6448C39.5381 26.7555 38.7078 23.6058 37.7047 23.6099C36.7016 23.614 35.9055 26.7702 35.9266 30.6596C35.9477 34.5489 36.778 37.6985 37.7811 37.6945Z" fill="url(#paint2_linear_6_22)"/>
<path d="M64.6671 40.754C65.676 40.7499 66.4767 37.5755 66.4555 33.6638C66.4343 29.752 65.5992 26.5843 64.5902 26.5884C63.5813 26.5925 62.7806 29.7669 62.8018 33.6786C62.823 37.5904 63.6582 40.7581 64.6671 40.754Z" fill="url(#paint3_linear_6_22)"/>
<path d="M72.3623 44.5016L64.6481 51.4692C63.2902 52.6957 63.2897 54.7357 64.6469 56.0257C66.0042 57.3158 68.2053 57.3673 69.5632 56.1408L77.2774 49.1732C78.6353 47.9468 78.6358 45.9067 77.2785 44.6167C75.9212 43.3267 73.7202 43.2751 72.3623 44.5016Z" fill="url(#paint4_linear_6_22)"/>
<path d="M17.6193 45.6708L27.2151 54.7913C28.6061 56.1134 30.8617 56.1663 32.2532 54.9096L32.2539 54.9089C33.6453 53.6521 33.6457 51.5615 32.2547 50.2395L22.6588 41.119C21.2678 39.7969 19.0122 39.7439 17.6208 41.0007L17.62 41.0014C16.2286 42.2581 16.2283 44.3487 17.6193 45.6708Z" fill="url(#paint5_linear_6_22)"/>
<path fill-rule="evenodd" clip-rule="evenodd" d="M47.4433 29.2591C42.528 29.3364 31.8001 33.2963 28.2084 48.5187C26.7083 55.011 25.7051 68.6105 33.689 71.0709L33.7489 71.0886C34.2478 72.4148 35.2879 74.6966 36.2533 75.2615C36.4382 75.3806 36.726 75.7022 36.4066 76.0426C36.0411 76.3131 35.7406 76.8885 37.4698 77.0284C39.1989 77.1694 41.6046 76.7538 42.5921 76.5282C43.0963 76.4739 44.1122 75.7001 44.1332 73.0456C45.6396 73.1437 48.9161 73.2649 51.6296 73.102C52.1244 73.0782 52.6189 73.0486 53.1129 73.0132C53.2222 74.1765 53.966 76.5784 55.2781 76.6421C56.4525 76.7141 59.2385 76.8196 60.9876 76.6703C61.2996 76.618 61.7366 76.3476 60.9876 75.6855C60.8237 75.5038 60.9172 75.3743 61.5832 74.7791C62.2934 74.1452 62.9773 72.4733 63.1926 71.4144C64.0194 71.2056 64.8304 70.979 65.6214 70.7356C68.2687 69.9201 72.7397 65.815 71.2931 57.2436C70.5672 47.4515 64.7799 28.1449 47.4433 29.2591V29.2591Z" fill="#87A1F6"/>
<path d="M49.8011 43.2488C52.3339 42.8244 54.0143 40.5776 53.5546 38.2305C53.0948 35.8834 50.6689 34.3248 48.1362 34.7493C45.6035 35.1738 43.9231 37.4206 44.3828 39.7677C44.8426 42.1147 47.2684 43.6733 49.8011 43.2488Z" fill="white" fill-opacity="0.07"/>
<path d="M50.019 55.2183C53.9992 54.5513 56.6628 51.1368 55.9684 47.5918C55.274 44.0468 51.4846 41.7138 47.5044 42.3809C43.5243 43.0479 40.8606 46.4624 41.555 50.0074C42.2494 53.5524 46.0389 55.8854 50.019 55.2183Z" fill="white" fill-opacity="0.1"/>
<path d="M49.5375 42.3969C51.5021 42.0676 52.8057 40.3253 52.4492 38.5052C52.0927 36.6852 50.2111 35.4767 48.2465 35.806C46.2818 36.1352 44.9782 37.8776 45.3347 39.6976C45.6912 41.5176 47.5729 42.7261 49.5375 42.3969Z" fill="#FFFEFF"/>
<path d="M47.1051 38.8636C47.7252 38.7597 48.1367 38.2096 48.0242 37.635C47.9116 37.0604 47.3177 36.6789 46.6975 36.7828C46.0773 36.8868 45.6658 37.4368 45.7784 38.0114C45.8909 38.586 46.4849 38.9676 47.1051 38.8636Z" fill="#341326"/>
<path d="M49.6534 53.8457C52.7548 53.3259 54.8354 50.6911 54.3006 47.9608C53.7657 45.2305 50.818 43.4385 47.7166 43.9582C44.6152 44.478 42.5346 47.1128 43.0695 49.8431C43.6043 52.5734 46.552 54.3654 49.6534 53.8457Z" fill="#FFFEFF"/>
<path d="M45.8173 48.576C46.7996 48.4114 47.459 47.579 47.2901 46.7168C47.1212 45.8546 46.188 45.2892 45.2057 45.4538C44.2234 45.6184 43.564 46.4508 43.7329 47.313C43.9017 48.1752 44.835 48.7407 45.8173 48.576Z" fill="#341326"/>
<path d="M62.4415 55.2699C50.1746 58.1855 40.7736 56.5126 37.6053 55.3117C36.6871 54.964 36.8142 55.7127 36.9928 56.1304C45.3864 71.8342 61.0117 57.8388 62.5696 56.4124C63.8155 55.272 63.0035 55.1759 62.4415 55.2699Z" fill="#341524"/>
<path d="M40.9291 61.1293C42.3431 59.5776 48.6136 57.8608 57.9138 59.9848C54.9965 61.8718 47.1565 66.2672 40.9301 61.1293H40.9291Z" fill="url(#paint6_linear_6_22)"/>
<path d="M37.663 57.2885C38.0423 57.9892 39.1863 59.6308 40.2641 60.5216C39.9847 57.7125 39.0434 52.9882 37.663 57.2885V57.2885Z" fill="url(#paint7_linear_6_22)"/>
<path d="M59.104 59.1588C59.9097 58.6649 61.641 57.3 62.4583 56.5366C61.392 54.3854 59.0651 51.8552 59.104 59.1578V59.1588Z" fill="url(#paint8_linear_6_22)"/>
<defs>
<linearGradient id="paint0_linear_6_22" x1="40.589" y1="29.7203" x2="40.6815" y2="52.4605" gradientUnits="userSpaceOnUse">
<stop stop-color="#657ED8"/>
<stop offset="0.737" stop-color="#89A4FB"/>
</linearGradient>
<linearGradient id="paint1_linear_6_22" x1="67.4747" y1="32.7403" x2="67.5673" y2="55.4805" gradientUnits="userSpaceOnUse">
<stop stop-color="#657ED8"/>
<stop offset="0.737" stop-color="#89A4FB"/>
</linearGradient>
<linearGradient id="paint2_linear_6_22" x1="39.5592" y1="30.6448" x2="39.6165" y2="44.7294" gradientUnits="userSpaceOnUse">
<stop stop-color="#4861B9"/>
<stop offset="0.737" stop-color="#89A4FB"/>
</linearGradient>
<linearGradient id="paint3_linear_6_22" x1="66.4555" y1="33.6638" x2="66.5132" y2="47.8284" gradientUnits="userSpaceOnUse">
<stop stop-color="#4861B9"/>
<stop offset="0.737" stop-color="#89A4FB"/>
</linearGradient>
<linearGradient id="paint4_linear_6_22" x1="77.3503" y1="44.7234" x2="67.9002" y2="53.8607" gradientUnits="userSpaceOnUse">
<stop stop-color="#859EF3"/>
<stop offset="1" stop-color="#637EE1"/>
</linearGradient>
<linearGradient id="paint5_linear_6_22" x1="17.7392" y1="40.9379" x2="27.5292" y2="52.9252" gradientUnits="userSpaceOnUse">
<stop stop-color="#859EF3"/>
<stop offset="1" stop-color="#637EE1"/>
</linearGradient>
<linearGradient id="paint6_linear_6_22" x1="41.6529" y1="62.3532" x2="57.3044" y2="59.6699" gradientUnits="userSpaceOnUse">
<stop stop-color="#F36376"/>
<stop offset="1" stop-color="#F09B86"/>
</linearGradient>
<linearGradient id="paint7_linear_6_22" x1="38.2954" y1="55.8046" x2="39.8752" y2="63.0673" gradientUnits="userSpaceOnUse">
<stop stop-color="#F7AE5D"/>
<stop offset="1" stop-color="#FEEAD2"/>
</linearGradient>
<linearGradient id="paint8_linear_6_22" x1="60.0757" y1="54.2476" x2="60.841" y2="58.8136" gradientUnits="userSpaceOnUse">
<stop stop-color="#FDAE53"/>
<stop offset="1" stop-color="#FFDBA7"/>
</linearGradient>
</defs>
</svg>
