<svg width="207" height="50" viewBox="0 0 207 50" fill="none" xmlns="http://www.w3.org/2000/svg">
<line x1="1.5" y1="42" x2="203.502" y2="42" stroke="url(#paint0_linear_1_10)" stroke-width="3" stroke-linecap="round"/>
<path d="M4.88122 37L7.80122 29.52H19.5212L22.4412 37H26.2812L15.4812 10.2H12.0012L1.20122 37H4.88122ZM12.3212 17.96L13.6812 13.76L15.0012 17.96L18.3212 26.44H9.00122L12.3212 17.96ZM32.0431 37V26.04C32.0431 22.72 34.2831 19.8 36.7631 19.8C38.1631 19.8 38.7631 20.76 38.7631 21.88C38.7631 22.96 38.2431 24.16 37.6031 24.72H41.4031C41.7231 24.24 42.1631 23.04 42.1631 21.4C42.1631 18.68 40.1631 17.2 38.0831 17.2C34.8031 17.2 32.8031 19.8 32.0431 22.8V17.64H28.5631V37H32.0431ZM48.9181 14.52V10.2H45.4381V14.52H48.9181ZM43.2781 44.84C46.3581 44.84 48.9181 42.64 48.9181 38.6V17.64H45.4381V38.36C45.4381 40.68 44.6381 41.48 42.9981 41.48C41.2781 41.48 40.1181 40.32 39.4781 39.12L37.5581 41.96C38.3981 43.08 40.0781 44.84 43.2781 44.84ZM60.2281 37.4C64.1081 37.4 66.1881 34.76 66.9081 31.72V37H70.3481V17.64H66.9081V28.64C66.9081 31.84 65.5481 34.48 61.7881 34.48C58.5081 34.48 57.5081 32.68 57.5081 30.2V17.64H54.0681V31.04C54.0681 35.12 56.4281 37.4 60.2281 37.4ZM79.1134 37V26.04C79.1134 22.8 80.4734 20.2 84.1934 20.2C87.4734 20.2 88.4734 21.96 88.4734 24.48V37H91.9134V23.64C91.9134 19.52 89.5534 17.24 85.7534 17.24C81.9534 17.24 79.8734 19.8 79.1134 22.8V17.64H75.6334V37H79.1134ZM109.748 37V10.2H106.268V37H109.748ZM119.074 37V26.04C119.074 22.8 120.434 20.2 124.154 20.2C127.434 20.2 128.434 21.96 128.434 24.48V37H131.874V23.64C131.874 19.52 129.514 17.24 125.714 17.24C121.914 17.24 119.834 19.8 119.074 22.8V17.64H115.594V37H119.074ZM144.365 31.08C148.925 31.08 152.005 28.2 152.005 24.16C152.005 21.76 150.885 19.72 149.045 18.52L152.605 14.52L149.005 13.24L147.805 17.88C146.805 17.48 145.645 17.24 144.365 17.24C139.805 17.24 136.725 20.12 136.725 24.16C136.725 26.6 137.845 28.64 139.765 29.84C137.885 31.36 136.725 33.04 136.725 34.56C136.725 35.84 137.365 36.76 138.605 37.16C137.125 37.76 135.485 38.84 135.485 40.64C135.485 43.2 138.605 44.84 143.565 44.84C150.085 44.84 153.685 42.24 153.685 38.56C153.685 35.64 151.485 34.24 147.965 34.24H142.125C140.125 34.24 139.565 33.72 139.565 32.68C139.565 31.84 140.125 30.92 140.605 30.28C141.685 30.8 142.965 31.08 144.365 31.08ZM144.365 28.4C141.965 28.4 140.085 26.8 140.085 24.16C140.085 21.52 141.965 19.92 144.365 19.92C146.805 19.92 148.645 21.52 148.645 24.16C148.645 26.8 146.805 28.4 144.365 28.4ZM143.565 42.08C140.085 42.08 138.285 41.12 138.285 39.56C138.285 38.64 138.965 37.8 139.605 37.24H147.525C149.485 37.24 150.445 37.8 150.445 39.04C150.445 40.96 147.965 42.08 143.565 42.08ZM164.448 37.4C169.808 37.4 173.608 33.44 173.608 27.32C173.608 21.2 169.808 17.24 164.448 17.24C159.088 17.24 155.328 21.2 155.328 27.32C155.328 33.44 159.088 37.4 164.448 37.4ZM164.448 34.48C161.168 34.48 158.888 32.2 158.888 27.32C158.888 22.4 161.168 20.16 164.448 20.16C167.768 20.16 170.088 22.4 170.088 27.32C170.088 32.2 167.768 34.48 164.448 34.48ZM181.535 37V10.2H178.055V37H181.535ZM195.006 37.4C199.206 37.4 201.886 35.44 203.326 33.12L201.206 30.72C200.446 32.4 198.886 34.52 195.006 34.52C191.566 34.52 189.286 32.2 189.086 28.12H203.446C203.526 27.76 203.606 27.16 203.606 26.56C203.606 20.88 200.286 17.24 194.806 17.24C189.486 17.24 185.726 21.2 185.726 27.32C185.726 33.48 189.526 37.4 195.006 37.4ZM194.806 20.16C198.046 20.16 200.126 22.04 200.486 25.6H189.166C189.606 22 191.686 20.16 194.806 20.16Z" fill="white"/>
<defs>
<linearGradient id="paint0_linear_1_10" x1="205.001" y1="43.0004" x2="-1.99878" y2="43.0005" gradientUnits="userSpaceOnUse">
<stop stop-color="#FF775A"/>
<stop offset="0.51875" stop-color="#9C4587"/>
<stop offset="1" stop-color="#407DFD"/>
</linearGradient>
</defs>
</svg>
